<?xml version="1.0" encoding="utf-8"?>
<!-- Generator: Adobe Illustrator 27.0.0, SVG Export Plug-In . SVG Version: 6.00 Build 0)  -->
<svg version="1.1" id="Calque_1" xmlns="http://www.w3.org/2000/svg" xmlns:xlink="http://www.w3.org/1999/xlink" x="0px" y="0px"
	 viewBox="0 0 874 468" style="enable-background:new 0 0 874 468;" xml:space="preserve">
<style type="text/css">
	.st0{fill:url(#SVGID_1_);}
	.st1{fill:url(#SVGID_00000152246234260379991660000001453385672400720513_);}
	.st2{fill:url(#SVGID_00000142892399439906314980000001752054850256268700_);}
	.st3{fill:url(#SVGID_00000048501219651887927900000007980751306540638087_);}
	.st4{fill:#011B84;}
	.st5{fill:#4E5EF1;}
	.st6{fill:url(#SVGID_00000126286270913715323710000013314970776951867803_);}
	.st7{fill:url(#SVGID_00000135660638568337326670000005170481684634797451_);}
	.st8{fill:#969EC4;}
</style>
<g>
	<g>
		<g>
			<linearGradient id="SVGID_1_" gradientUnits="userSpaceOnUse" x1="27.8128" y1="65.0906" x2="102.4738" y2="139.0267">
				<stop  offset="0" style="stop-color:#08E0FF"/>
				<stop  offset="1" style="stop-color:#E8EF05"/>
			</linearGradient>
			<rect x="72" y="108.71" class="st0" width="36.28" height="36.2"/>
			
				<linearGradient id="SVGID_00000179613573436695207620000013145376496468750263_" gradientUnits="userSpaceOnUse" x1="301.1754" y1="50.6351" x2="59.5317" y2="275.8471">
				<stop  offset="0" style="stop-color:#011B84"/>
				<stop  offset="0.7328" style="stop-color:#4E5EF1"/>
			</linearGradient>
			<path style="fill:url(#SVGID_00000179613573436695207620000013145376496468750263_);" d="M217.13,144.92h-18.14h-54.42h-36.28
				v36.2H72v108.61h36.28V181.12h36.28v108.61h36.28V181.12h18.14h18.14V144.92z M217.12,72.5L217.12,72.5l-108.84,0.01v36.2h108.84
				c30.06,0,54.42,24.31,54.42,54.31c0,30-24.36,54.31-54.42,54.31v36.21c50.11,0,90.71-40.53,90.71-90.52
				C307.83,113.03,267.23,72.5,217.12,72.5z"/>
		</g>
	</g>
	<g>
		<g>
			<g>
				<path class="st4" d="M379.77,126.81h40c19.58,0,30.96,8.95,30.96,27.62c0,18.75-11.38,27.62-30.87,27.62h-18.46v17.03h-21.64
					V126.81z M418.05,164.07c6.64,0,10.86-3.19,10.86-9.64c0-6.36-4.22-9.63-10.86-9.63h-16.64v19.27H418.05z"/>
				<path class="st4" d="M496.92,124.41c-24.49,0-40.61,15.57-40.61,38.54c0,17.85,9.76,31.19,25.59,36.27l9.89-28.51
					c0.3-0.72-0.21-1.49-0.98-1.49h-11.34c-0.76,0-1.27-0.76-0.99-1.47l15.02-28.47c0.17-0.43,0.59-0.71,1.05-0.71h14.01
					c2.01,0,3.3,2.13,2.37,3.9l-7.39,14.13c-0.3,0.72,0.21,1.49,0.98,1.49h12.38c0.9,0,1.38,1.01,0.84,1.74L487.3,200.6
					c3.04,0.57,6.24,0.89,9.62,0.89c24.49,0,40.61-15.58,40.61-38.54C537.52,139.98,521.4,124.41,496.92,124.41z"/>
				<path class="st4" d="M541.04,126.81h21.98l8.97,49.21h1.9l11.55-49.21h17.42l11.55,49.21h1.9l8.97-49.21h21.98l-14.83,72.27
					H603.2l-8.1-38.37h-1.9l-8.1,38.37h-29.22L541.04,126.81z"/>
				<path class="st4" d="M654.31,126.81h63.8v17.38h-42.16v11.45h40.61v14.54h-40.61v11.44h42.16v17.47h-63.8V126.81z"/>
				<path class="st4" d="M780.7,199.08l-10.52-19.61h-19.83v19.61h-21.64v-72.27h40.26c19.92,0,30.87,8.78,30.87,27.02
					c0,9.89-4.57,16.95-11.12,21.16L802,199.08H780.7z M750.35,163.21h17.24c6.9,0,10.61-3.27,10.61-9.21
					c0-5.94-3.71-9.21-10.61-9.21h-17.24V163.21z"/>
			</g>
		</g>
		<g>
			<g>
				<path class="st5" d="M480.76,231.26h-27.43v58.47h-17.41v-58.47h-27.34v-14.51h72.18V231.26z"/>
				<path class="st5" d="M490.06,216.74h61.56v14.16h-44.23v15.99h42.67v12.51h-42.67v16.08h44.23v14.25h-61.56V216.74z"/>
				<path class="st5" d="M559.27,253.23c0-22.93,16.37-38.92,40.05-38.92c16.02,0,32.48,7.13,36.05,28.59h-16.63
					c-3.13-9.39-10.36-13.56-19.41-13.56c-12.97,0-22.9,9.82-22.9,23.89c0,13.99,9.93,23.9,22.9,23.9c9.06,0,16.28-4.17,19.41-13.65
					h16.63c-3.57,21.55-19.85,28.67-36.05,28.67C575.64,292.16,559.27,276.18,559.27,253.23z"/>
				<path class="st5" d="M714.94,216.74v72.98h-17.41v-29.28h-36.31v29.28h-17.33v-72.98h17.33v29.28h36.31v-29.28H714.94z"/>
			</g>
		</g>
		<g>
			<rect x="379.77" y="216.74" class="st5" width="17.33" height="17.53"/>
			<rect x="379.77" y="245.83" class="st5" width="17.33" height="43.9"/>
		</g>
	</g>
	<g>
		<path class="st8" d="M379.1,328.2h6.62v27.87h-6.62V328.2z"/>
		<path class="st8" d="M415.92,333.74h-10.48v22.33h-6.65v-22.33h-10.44v-5.54h27.57V333.74z"/>
		<path class="st8" d="M449.47,351.39H435.7l-1.73,4.68h-6.85l10.81-27.87h9.31l10.84,27.87h-6.88L449.47,351.39z M447.61,346.38
			l-4.39-11.91h-1.26l-4.39,11.91H447.61z"/>
		<path class="st8" d="M460.37,328.2h7.68l12.97,18.75h0.63V328.2h6.48v27.87h-7.55l-13.13-18.75h-0.6v18.75h-6.48V328.2z"/>
		<path class="st8" d="M520.32,342.13c0,7.93-4.12,13.94-14.96,13.94h-12.84V328.2h12.84C516.19,328.2,520.32,334.2,520.32,342.13z
			 M513.67,342.13c0-5.38-2.93-8.36-8.35-8.36h-6.12l-0.07,16.72h6.18C510.74,350.5,513.67,347.51,513.67,342.13z"/>
		<path class="st8" d="M532.35,328.2h23.51v5.41h-16.89v6.11h16.29v4.78h-16.29v6.14h16.89v5.44h-23.51V328.2z"/>
		<path class="st8" d="M560.04,328.2h7.68l12.97,18.75h0.63V328.2h6.48v27.87h-7.55l-13.13-18.75h-0.6v18.75h-6.48V328.2z"/>
		<path class="st8" d="M592.19,328.2h23.51v5.41h-16.89v6.11h16.29v4.78h-16.29v6.14h16.89v5.44h-23.51V328.2z"/>
		<path class="st8" d="M640.1,356.07l-4.59-8.3h-9.01v8.3h-6.62V328.2h14.67c7.48,0,11.44,3.48,11.44,9.99c0,3.88-1.9,6.7-4.76,8.26
			l5.45,9.62H640.1z M626.5,342.7h7.68c3.36,0,5.22-1.53,5.22-4.48c0-2.95-1.86-4.48-5.22-4.48h-7.68V342.7z"/>
		<path class="st8" d="M678.08,356.07h-4.16l-0.07-4.05c-1.93,2.92-5.45,4.98-10.41,4.98c-8.45,0-14.9-6.11-14.9-14.87
			s6.25-14.87,15.43-14.87c6.05,0,12.17,2.82,13.67,9.82h-6.62c-1.06-2.52-3.59-4.08-6.95-4.08c-5.19,0-8.98,3.75-8.98,9.13
			c0,5.34,3.82,9.12,8.85,9.12c2.79,0,6.68-1.23,7.65-5.44h-8.11v-4.48h14.6V356.07z"/>
		<path class="st8" d="M696.15,347.14v8.93h-6.65v-8.96l-11.51-18.91h7.05l7.45,12.48h0.7l7.45-12.48h7.05L696.15,347.14z"/>
		<path class="st8" d="M378.43,385.94h5.99c0.23,2.62,2.39,4.28,6.98,4.31c4.32,0,6.68-1.46,6.68-3.65c0-1.92-1.56-2.89-4.89-3.45
			l-3.46-0.6c-5.29-0.93-10.54-2.32-10.54-8.4c0-5.28,4.46-8.4,12.27-8.4c7.28,0,12.34,2.55,12.4,9.46h-5.95
			c-0.43-2.52-2.39-4.21-6.58-4.21c-3.79,0-5.79,1.29-5.79,3.45c0,1.69,1.36,2.75,4.22,3.29l3.03,0.53
			c5.32,0.96,11.87,1.86,11.87,8.53c0,5.54-4.56,8.69-13.27,8.69C382.89,395.5,378.4,392.48,378.43,385.94z"/>
		<path class="st8" d="M406.8,380.63c0-8.76,6.22-14.87,15.33-14.87c9.14,0,15.36,6.11,15.36,14.87s-6.22,14.87-15.36,14.87
			C413.02,395.5,406.8,389.39,406.8,380.63z M430.91,380.63c0-5.48-3.79-9.13-8.78-9.13c-4.96,0-8.78,3.65-8.78,9.13
			s3.82,9.12,8.78,9.12C427.12,389.76,430.91,386.11,430.91,380.63z"/>
		<path class="st8" d="M440.84,366.7h6.62v22.33h16.09v5.54h-22.71V366.7z"/>
		<path class="st8" d="M465.76,382.96V366.7h6.68v16.09c0,4.45,2.23,7.13,6.78,7.13s6.82-2.69,6.82-7.13V366.7h6.65v16.26
			c0,8.49-4.86,12.54-13.47,12.54C470.61,395.5,465.76,391.45,465.76,382.96z"/>
		<path class="st8" d="M522.94,372.24h-10.48v22.33h-6.65v-22.33h-10.44v-5.54h27.57V372.24z"/>
		<path class="st8" d="M525.6,366.7h6.62v27.87h-6.62V366.7z"/>
		<path class="st8" d="M535.55,380.63c0-8.76,6.22-14.87,15.33-14.87c9.15,0,15.36,6.11,15.36,14.87s-6.22,14.87-15.36,14.87
			C541.77,395.5,535.55,389.39,535.55,380.63z M559.66,380.63c0-5.48-3.79-9.13-8.78-9.13c-4.95,0-8.78,3.65-8.78,9.13
			s3.82,9.12,8.78,9.12C555.87,389.76,559.66,386.11,559.66,380.63z"/>
		<path class="st8" d="M569.59,366.7h7.68l12.97,18.75h0.63V366.7h6.48v27.87h-7.55l-13.13-18.75h-0.6v18.75h-6.48V366.7z"/>
		<path class="st8" d="M600.69,385.94h5.99c0.23,2.62,2.4,4.28,6.98,4.31c4.32,0,6.68-1.46,6.68-3.65c0-1.92-1.56-2.89-4.89-3.45
			l-3.46-0.6c-5.29-0.93-10.54-2.32-10.54-8.4c0-5.28,4.46-8.4,12.27-8.4c7.28,0,12.34,2.55,12.4,9.46h-5.95
			c-0.43-2.52-2.39-4.21-6.58-4.21c-3.79,0-5.79,1.29-5.79,3.45c0,1.69,1.36,2.75,4.22,3.29l3.03,0.53
			c5.32,0.96,11.87,1.86,11.87,8.53c0,5.54-4.56,8.69-13.27,8.69C605.15,395.5,600.66,392.48,600.69,385.94z"/>
	</g>
</g>
</svg>
