<?xml version="1.0" encoding="utf-8"?>
<!-- Generator: Adobe Illustrator 27.0.0, SVG Export Plug-In . SVG Version: 6.00 Build 0)  -->
<svg version="1.1" id="Calque_1" xmlns="http://www.w3.org/2000/svg" xmlns:xlink="http://www.w3.org/1999/xlink" x="0px" y="0px"
	 viewBox="0 0 874 362" style="enable-background:new 0 0 874 362;" xml:space="preserve">
<style type="text/css">
	.st0{fill:url(#SVGID_1_);}
	.st1{fill:url(#SVGID_00000070120314605980147380000002786322774189782912_);}
	.st2{fill:url(#SVGID_00000045613073076701431290000009848178510810960284_);}
	.st3{fill:url(#SVGID_00000120534185146227104460000005376781987473574332_);}
	.st4{fill:#011B84;}
	.st5{fill:#4E5EF1;}
	.st6{fill:url(#SVGID_00000140705060928350664630000011919436926140152492_);}
	.st7{fill:url(#SVGID_00000092456416147529058740000006463042485661706118_);}
	.st8{fill:#969EC4;}
</style>
<g>
	<g>
		<g>
			<linearGradient id="SVGID_1_" gradientUnits="userSpaceOnUse" x1="27.8128" y1="64.9742" x2="102.4738" y2="138.9103">
				<stop  offset="0" style="stop-color:#08E0FF"/>
				<stop  offset="1" style="stop-color:#E8EF05"/>
			</linearGradient>
			<rect x="72" y="108.6" class="st0" width="36.28" height="36.2"/>
			
				<linearGradient id="SVGID_00000080903384796949475170000007917836934624814491_" gradientUnits="userSpaceOnUse" x1="301.1754" y1="50.5187" x2="59.5317" y2="275.7307">
				<stop  offset="0" style="stop-color:#011B84"/>
				<stop  offset="0.7328" style="stop-color:#4E5EF1"/>
			</linearGradient>
			<path style="fill:url(#SVGID_00000080903384796949475170000007917836934624814491_);" d="M217.13,144.8h-18.14h-54.42h-36.28V181
				H72v108.61h36.28V181h36.28v108.61h36.28V181h18.14h18.14V144.8z M217.12,72.38L217.12,72.38l-108.84,0.01v36.2h108.84
				c30.06,0,54.42,24.31,54.42,54.31c0,30-24.36,54.31-54.42,54.31v36.21c50.11,0,90.71-40.53,90.71-90.52
				C307.83,112.92,267.23,72.38,217.12,72.38z"/>
		</g>
	</g>
	<g>
		<g>
			<g>
				<path class="st4" d="M379.77,126.7h40c19.58,0,30.96,8.95,30.96,27.62c0,18.75-11.38,27.62-30.87,27.62h-18.46v17.03h-21.64
					V126.7z M418.05,163.95c6.64,0,10.86-3.19,10.86-9.64c0-6.36-4.22-9.63-10.86-9.63h-16.64v19.27H418.05z"/>
				<path class="st4" d="M496.92,124.29c-24.49,0-40.61,15.57-40.61,38.54c0,17.85,9.76,31.19,25.59,36.27l9.89-28.51
					c0.3-0.72-0.21-1.49-0.98-1.49h-11.34c-0.76,0-1.27-0.76-0.99-1.47l15.02-28.47c0.17-0.43,0.59-0.71,1.05-0.71h14.01
					c2.01,0,3.3,2.13,2.37,3.9l-7.39,14.13c-0.3,0.72,0.21,1.49,0.98,1.49h12.38c0.9,0,1.38,1.01,0.84,1.74l-30.44,40.78
					c3.04,0.57,6.24,0.89,9.62,0.89c24.49,0,40.61-15.58,40.61-38.54C537.52,139.86,521.4,124.29,496.92,124.29z"/>
				<path class="st4" d="M541.04,126.7h21.98l8.97,49.21h1.9l11.55-49.21h17.42l11.55,49.21h1.9l8.97-49.21h21.98l-14.83,72.27
					H603.2l-8.1-38.37h-1.9l-8.1,38.37h-29.22L541.04,126.7z"/>
				<path class="st4" d="M654.31,126.7h63.8v17.38h-42.16v11.45h40.61v14.54h-40.61v11.44h42.16v17.47h-63.8V126.7z"/>
				<path class="st4" d="M780.7,198.97l-10.52-19.61h-19.83v19.61h-21.64V126.7h40.26c19.92,0,30.87,8.78,30.87,27.02
					c0,9.89-4.57,16.95-11.12,21.16L802,198.97H780.7z M750.35,163.09h17.24c6.9,0,10.61-3.27,10.61-9.21s-3.71-9.21-10.61-9.21
					h-17.24V163.09z"/>
			</g>
		</g>
		<g>
			<g>
				<path class="st5" d="M480.76,231.14h-27.43v58.47h-17.41v-58.47h-27.34v-14.51h72.18V231.14z"/>
				<path class="st5" d="M490.06,216.63h61.56v14.16h-44.23v15.99h42.67v12.51h-42.67v16.08h44.23v14.25h-61.56V216.63z"/>
				<path class="st5" d="M559.27,253.12c0-22.93,16.37-38.92,40.05-38.92c16.02,0,32.48,7.13,36.05,28.59h-16.63
					c-3.13-9.39-10.36-13.56-19.41-13.56c-12.97,0-22.9,9.82-22.9,23.89c0,13.99,9.93,23.9,22.9,23.9c9.06,0,16.28-4.17,19.41-13.65
					h16.63c-3.57,21.55-19.85,28.67-36.05,28.67C575.64,292.04,559.27,276.06,559.27,253.12z"/>
				<path class="st5" d="M714.94,216.63v72.98h-17.41v-29.28h-36.31v29.28h-17.33v-72.98h17.33v29.28h36.31v-29.28H714.94z"/>
			</g>
		</g>
		<g>
			<rect x="379.77" y="216.63" class="st5" width="17.33" height="17.53"/>
			<rect x="379.77" y="245.71" class="st5" width="17.33" height="43.9"/>
		</g>
	</g>
</g>
</svg>
