<?xml version="1.0" encoding="UTF-8"?>
<svg id="svg10" xmlns="http://www.w3.org/2000/svg" viewBox="0 0 50 50">
  <defs>
    <style>
      .cls-1 {
        fill: #4e5ef1;
      }
    </style>
  </defs>
  <path class="cls-1" d="M34.89,38.39c-.66,0-1.2-.54-1.2-1.2,0-4.75-3.87-8.62-8.62-8.62s-8.62,3.87-8.62,8.62c0,.66-.54,1.2-1.2,1.2s-1.2-.54-1.2-1.2c0-4.32,2.55-8.25,6.48-10.03l.29-.13-.24-.21c-1.47-1.27-2.32-3.12-2.32-5.07,0-3.76,3.06-6.82,6.82-6.82s6.82,3.06,6.82,6.82c0,1.95-.84,3.79-2.32,5.07l-.24,.21,.29,.13c3.93,1.78,6.47,5.72,6.48,10.03,0,.66-.54,1.2-1.2,1.2Zm-9.82-21.05c-2.43,0-4.41,1.98-4.41,4.41s1.98,4.41,4.41,4.41,4.41-1.98,4.41-4.41-1.98-4.41-4.41-4.41Zm15.77,11.92c-.53,0-.96-.43-.96-.96,.03-3.23-1.84-6.21-4.76-7.6l-.14-.08-.44-.29c-.28-.19-.44-.5-.43-.83,0-.33,.19-.64,.48-.81,1.13-.65,1.84-1.87,1.84-3.18,0-1.54-1.5-3.39-3.37-3.39-.92,0-1.82,.42-2.68,1.25-.2,.19-.45,.3-.72,.3-.24,0-.47-.09-.65-.26-.38-.37-.4-.98-.03-1.36,1.32-1.57,2.95-1.9,4.09-1.9,1.3,0,2.63,.46,3.39,1.17,2.3,2.16,2.51,5.64,.47,7.92l-.16,.18,.2,.13c3.04,1.9,4.84,5.17,4.82,8.76,0,.53-.43,.96-.96,.96Z"/>
  <path class="cls-1" d="M9.16,29.27c-.53,0-.96-.43-.96-.96-.02-3.58,1.78-6.86,4.82-8.76l.2-.13-.16-.18c-2.03-2.29-1.82-5.77,.47-7.92,.75-.71,2.09-1.17,3.39-1.17,1.13,0,2.76,.33,4.08,1.89,.38,.39,.36,1-.02,1.37-.18,.17-.41,.26-.65,.26-.26,0-.52-.11-.72-.3-.86-.83-1.77-1.25-2.68-1.25-1.86,0-3.37,1.86-3.37,3.39,0,1.31,.71,2.53,1.84,3.18,.29,.17,.47,.47,.48,.81,0,.33-.15,.64-.43,.83l-.46,.3-.13,.07c-2.91,1.38-4.78,4.36-4.75,7.59,0,.53-.43,.96-.96,.96Z"/>
</svg>