<?xml version="1.0" encoding="UTF-8"?>
<svg id="svg10" xmlns="http://www.w3.org/2000/svg" viewBox="0 0 50 50">
  <defs>
    <style>
      .cls-1 {
        fill: #4e5ef1;
      }

      .cls-2 {
        fill: none;
        stroke: #4e5ef1;
        stroke-linecap: round;
        stroke-linejoin: round;
        stroke-width: 1.73px;
      }
    </style>
  </defs>
  <path class="cls-2" d="M22.03,27.93h-6.88c-.2,0-.38,.07-.52,.21-1.76,1.88-3.95,3.3-6.39,4.15,.96-1.43,1.61-3.05,1.92-4.75,.06-.31-.08-.62-.36-.77-4.19-2.39-5.65-7.73-3.26-11.93,1.54-2.7,4.41-4.38,7.53-4.41h5.1c3.91,0,7.34,2.59,8.41,6.35m7.72,18.65c-.14-.14-.33-.23-.52-.23h-4.01c-4.83,0-8.74-3.91-8.74-8.74s3.91-8.74,8.74-8.74h5.1c4.83,.01,8.73,3.93,8.72,8.76,0,3.14-1.7,6.04-4.43,7.59-.27,.15-.42,.46-.36,.77,.32,1.7,.98,3.31,1.95,4.74-2.46-.83-4.67-2.26-6.45-4.15Z"/>
  <g id="SvgjsG1018">
    <g>
      <circle class="cls-1" cx="11.39" cy="19.17" r="2"/>
      <circle class="cls-1" cx="18.16" cy="19.17" r="2"/>
      <path class="cls-1" d="M26.98,24.27c-1.17,0-2.11,.95-2.11,2.11s.95,2.11,2.11,2.11,2.11-.95,2.11-2.11-.95-2.11-2.11-2.11Zm0,2.82c-.39,0-.7-.32-.7-.7s.32-.7,.7-.7,.7,.32,.7,.7-.32,.7-.7,.7Zm6.34-2.82c-1.17,0-2.11,.95-2.11,2.11s.95,2.11,2.11,2.11,2.11-.95,2.11-2.11-.95-2.11-2.11-2.11Zm0,2.82c-.39,0-.7-.32-.7-.7s.32-.7,.7-.7,.7,.32,.7,.7-.32,.7-.7,.7Zm8.45-.7c0-1.17-.95-2.11-2.11-2.11s-2.11,.95-2.11,2.11,.95,2.11,2.11,2.11,2.11-.95,2.11-2.11Zm-2.11,.7c-.39,0-.7-.32-.7-.7s.32-.7,.7-.7,.7,.32,.7,.7-.32,.7-.7,.7Z"/>
    </g>
  </g>
</svg>