<?xml version="1.0" encoding="UTF-8"?>
<svg id="svg10" xmlns="http://www.w3.org/2000/svg" viewBox="0 0 50 50">
  <defs>
    <style>
      .cls-1 {
        fill: #4e5ef1;
      }
    </style>
  </defs>
  <path class="cls-1" d="M13.41,39.46c-2.26,0-4.1-1.84-4.1-4.1v-13.52c0-1.18,.49-2.31,1.37-3.09l11.57-8.12c.78-.69,1.75-1.06,2.76-1.06s1.98,.37,2.73,1.04l11.61,8.16c.85,.76,1.35,1.88,1.34,3.06v13.54c0,2.26-1.84,4.1-4.1,4.1H13.41Zm13.14-14.39c2.26,0,4.1,1.84,4.1,4.1v8.28h5.95c1.15,0,2.09-.94,2.09-2.09v-13.54c0-.6-.26-1.17-.71-1.57l-11.61-8.14c-.36-.32-.85-.5-1.36-.5s-1,.18-1.38,.52l-11.57,8.11c-.47,.41-.73,.98-.73,1.58v13.54c0,1.15,.94,2.09,2.09,2.09h5.95v-8.28c0-2.26,1.84-4.1,4.1-4.1h3.09Zm-3.09,2.01c-1.15,0-2.09,.94-2.09,2.09v8.28h7.27v-8.28c0-1.15-.94-2.09-2.09-2.09h-3.09Z"/>
</svg>