<?xml version="1.0" encoding="UTF-8"?>
<svg id="svg10" xmlns="http://www.w3.org/2000/svg" viewBox="0 0 50 50">
  <defs>
    <style>
      .cls-1 {
        fill: #4e5ef1;
        fill-rule: evenodd;
      }
    </style>
  </defs>
  <path class="cls-1" d="M18.26,35.67c-.69,0-1.36-.28-1.85-.76s-.76-1.16-.76-1.85v-12.33c0-.69,.28-1.36,.76-1.85,.49-.49,1.16-.77,1.85-.77h21.07c.7,0,1.36,.27,1.85,.77,.49,.49,.77,1.16,.77,1.85v12.33c0,.69-.28,1.36-.77,1.85-.49,.49-1.15,.76-1.85,.76H18.26Zm0-16.13c-.32,0-.61,.12-.83,.35-.22,.22-.35,.52-.35,.83v12.33c0,.31,.13,.62,.35,.83,.22,.22,.52,.35,.83,.35h21.07c.32,0,.61-.12,.83-.35,.22-.22,.35-.52,.35-.83v-12.33c0-.31-.13-.61-.35-.83-.22-.22-.52-.35-.83-.35H18.26Z"/>
  <path class="cls-1" d="M14.46,39.46c-1.44,0-2.61-1.17-2.61-2.62v-14.89l-.12-.07c-2.27-1.32-3.68-3.75-3.68-6.36,0-2.12,.92-4.14,2.52-5.54,.31-.25,.67-.38,1.04-.38,.24,0,.48,.05,.7,.16,.56,.27,.91,.82,.92,1.44,.04,1.03,.04,2.32,.04,3.38,0,.65,.53,1.18,1.18,1.18h1.9c.65,0,1.18-.53,1.18-1.18v-3.34c0-.64,.37-1.23,.95-1.51,.23-.11,.47-.16,.72-.16,.38,0,.75,.13,1.05,.37,1.61,1.47,2.51,3.49,2.51,5.59,0,1.28-.33,2.54-.97,3.65-.13,.22-.37,.36-.62,.36h-2.92c-.31,0-.62,.13-.83,.35-.22,.22-.35,.52-.35,.83v12.33c0,.31,.13,.62,.35,.83,.22,.22,.52,.34,.83,.34,.19,0,.37,.08,.51,.21,.14,.14,.21,.32,.21,.51v1.9c0,1.44-1.17,2.62-2.61,2.62h-1.9Zm-1.18-16.58v13.97c0,.65,.53,1.18,1.18,1.18h1.9c.65,0,1.18-.53,1.18-1.18v-1.28l-.15-.05c-.37-.13-.7-.34-.98-.62-.5-.49-.77-1.15-.77-1.85v-10.17h-.23c-.29,0-.58-.02-.86-.05l-.17-.03c-.28-.04-.48-.08-.67-.13l-.28-.07-.14,.26Zm-1.86-11.73c-1.23,1.12-1.94,2.72-1.94,4.38,0,2.35,1.39,4.47,3.55,5.42l.11,.05c.38,.15,.7,.25,1.03,.32l.12,.02c.4,.08,.76,.11,1.11,.11h.23v-.73c0-.7,.27-1.36,.77-1.85,.49-.49,1.15-.77,1.85-.77h2.49l.06-.14c.35-.77,.53-1.59,.53-2.44,0-1.67-.72-3.3-1.97-4.46l-.39-.36v3.87c0,1.44-1.17,2.61-2.61,2.61h-1.9c-1.44,0-2.61-1.17-2.61-2.61,0-1.02,0-2.27-.04-3.27l-.02-.5-.37,.33Z"/>
  <path class="cls-1" d="M23.1,39.46c-.4,0-.72-.32-.72-.72s.32-.72,.72-.72h.63l.07-.08c.33-.39,.62-.79,.85-1.2,.39-.67,.57-1.26,.57-1.8,0-.4,.32-.72,.72-.72h5.69c.4,0,.72,.32,.72,.72,0,.53,.19,1.12,.57,1.8,.23,.41,.52,.81,.85,1.2l.07,.08h.63c.4,0,.72,.32,.72,.72s-.32,.72-.72,.72h-11.38Zm3.45-3.62c-.14,.58-.41,1.19-.8,1.83l-.21,.35h6.52l-.21-.35c-.39-.64-.66-1.26-.8-1.83l-.04-.18h-4.4l-.04,.18Z"/>
</svg>