<?xml version="1.0" encoding="UTF-8"?>
<svg id="svg10" xmlns="http://www.w3.org/2000/svg" viewBox="0 0 50 50">
  <defs>
    <style>
      .cls-1 {
        fill: none;
        stroke: #4e5ef1;
        stroke-linecap: round;
        stroke-linejoin: round;
        stroke-width: 1.5px;
      }

      .cls-2 {
        fill: #fff;
      }

      .cls-3 {
        fill: #4e5ef1;
      }
    </style>
  </defs>
  <path class="cls-1" d="M29.51,11.9H13.07c-1.72,0-3.11,1.39-3.11,3.11v11.04c0,1.72,1.39,3.11,3.11,3.11h10.14c-.13-.56-.3-1.48-.17-2.76h-3.66V15.49c0-.57,.46-1.03,1.03-1.03h1.79c.57,0,1.03,.46,1.03,1.03v7.76c.93-.53,1.92-.83,2.59-1.19v-4.47c0-.55,.45-1,1-1h1.85c.55,0,1,.45,1,1v4.43c1.19,.03,1.95,.16,2.95,.66v-7.67c0-1.72-1.39-3.11-3.11-3.11Zm-13.73,14.51h-1.82c-.56,0-1.02-.45-1.02-1.02v-7.26c0-.56,.45-1.02,1.02-1.02h1.82c.56,0,1.02,.45,1.02,1.02v7.26c0,.56-.45,1.02-1.02,1.02Z"/>
  <g>
    <circle class="cls-2" cx="28.74" cy="26.21" r="5.31"/>
    <g>
      <path class="cls-3" d="M27.54,32.93c3.71,.67,7.26-1.8,7.93-5.51,.67-3.71-1.8-7.26-5.52-7.93s-7.26,1.8-7.92,5.52,1.81,7.26,5.52,7.92Zm.37-2.07c-2.57-.46-4.28-2.92-3.82-5.48,.46-2.57,2.92-4.28,5.48-3.82,2.57,.46,4.28,2.92,3.82,5.48s-2.92,4.28-5.48,3.82Z"/>
      <path class="cls-3" d="M33.86,33.47c-.51-.51-.51-1.33,0-1.83h0c.51-.51,1.33-.51,1.83,0l3.97,4.25c.51,.51,.51,1.33,0,1.83h0c-.51,.51-1.33,.51-1.83,0l-3.97-4.25Z"/>
    </g>
  </g>
</svg>