<?xml version="1.0" encoding="UTF-8"?>
<svg id="svg10" xmlns="http://www.w3.org/2000/svg" viewBox="0 0 50 50">
  <defs>
    <style>
      .cls-1 {
        fill: #4e5ef1;
      }
    </style>
  </defs>
  <path class="cls-1" d="M13.97,41.42c-.23,0-.45-.09-.62-.26-.17-.17-.26-.38-.26-.62V11.82c0-.23,.09-.45,.26-.62,.16-.16,.39-.25,.62-.25h7.91l.07-.21c.3-.84,.94-1.53,1.76-1.89,.41-.18,.84-.27,1.29-.27s.88,.09,1.29,.27c.82,.36,1.46,1.05,1.76,1.89l.07,.21h7.91c.23,0,.45,.09,.62,.25,.17,.17,.26,.38,.26,.62v28.73c0,.23-.09,.45-.26,.62-.16,.16-.39,.26-.62,.26H13.97Zm.87-1.74h20.31V12.69h-4.57v2.67c0,.23-.09,.45-.25,.62s-.38,.26-.62,.26h-9.44c-.23,0-.45-.09-.62-.25s-.26-.39-.26-.62v-2.67h-4.56v26.98Zm6.31-25.19h7.69v-1.79h-1.49c-.23,0-.45-.09-.62-.25s-.26-.39-.26-.62c0-.53-.29-1.02-.74-1.29-.23-.13-.48-.2-.74-.2s-.52,.07-.74,.2c-.46,.26-.74,.76-.74,1.29,0,.23-.09,.45-.26,.62-.17,.17-.38,.26-.62,.26h-1.49v1.79Zm6.21,22.98c-.31,0-.6-.17-.75-.44-.16-.27-.16-.6,0-.87,.15-.27,.44-.44,.75-.44h3.54c.23,0,.45,.09,.62,.26,.16,.16,.25,.39,.25,.62s-.09,.45-.25,.62c-.16,.16-.38,.25-.62,.25h-3.54Zm-8.26,0c-.31,0-.6-.17-.75-.44-.16-.27-.16-.6,0-.87,.15-.27,.44-.44,.75-.44h3.54c.23,0,.45,.09,.62,.26,.16,.16,.26,.39,.26,.62s-.09,.45-.26,.62c-.16,.16-.38,.25-.62,.25h-3.54Zm8.26-3.54c-.31,0-.6-.17-.75-.44-.16-.27-.16-.6,0-.87,.15-.27,.44-.44,.75-.44h3.54c.23,0,.45,.09,.62,.26,.16,.16,.25,.39,.25,.62s-.09,.46-.25,.62c-.17,.17-.38,.26-.62,.26h-3.54Zm-8.26,0c-.31,0-.6-.17-.75-.44-.16-.27-.16-.6,0-.87,.15-.27,.44-.44,.75-.44h3.54c.23,0,.45,.09,.62,.26,.16,.16,.26,.39,.26,.62s-.09,.45-.26,.62c-.17,.17-.38,.26-.62,.26h-3.54Zm5.82-3.54c-.16-.01-.34-.08-.48-.2-.14-.12-.24-.28-.28-.46l-1.71-6.82-1.36,3.4c-.06,.16-.18,.3-.32,.4-.15,.1-.31,.15-.49,.15h-1.18c-.31,0-.6-.17-.75-.44-.16-.27-.16-.6,0-.87,.15-.27,.44-.44,.75-.44h.59l2.14-5.35c.09-.23,.28-.41,.51-.5,.1-.04,.2-.05,.3-.05,.14,0,.28,.04,.41,.1,.22,.12,.38,.32,.44,.56l1.71,6.82,1.36-3.4c.11-.28,.35-.48,.64-.54,.06-.01,.12-.02,.18-.02,.23,0,.46,.09,.62,.26l2.1,2.11h.82c.23,0,.45,.09,.62,.26,.16,.16,.25,.39,.25,.62s-.09,.45-.25,.62c-.16,.16-.38,.25-.62,.25h-1.18c-.24,0-.46-.09-.62-.25l-1.41-1.43-1.87,4.67c-.07,.16-.18,.3-.32,.4s-.31,.15-.49,.15h-.08Z"/>
</svg>