<?xml version="1.0" encoding="UTF-8"?>
<svg id="svg10" xmlns="http://www.w3.org/2000/svg" viewBox="0 0 50 50">
  <defs>
    <style>
      .cls-1 {
        fill: #4e5ef1;
      }
    </style>
  </defs>
  <path class="cls-1" d="M43.05,29.02c0,.32-.26,.57-.57,.57h-.79v.79c0,.32-.26,.57-.57,.57s-.57-.26-.57-.57v-.79h-.79c-.32,0-.57-.26-.57-.57s.26-.57,.57-.57h.79v-.79c0-.32,.26-.57,.57-.57s.57,.26,.57,.57v.79h.79c.32,0,.57,.26,.57,.57ZM9.68,15.78h.79v.79c0,.32,.26,.57,.57,.57s.57-.26,.57-.57v-.79h.79c.32,0,.57-.26,.57-.57s-.26-.57-.57-.57h-.79v-.79c0-.32-.26-.57-.57-.57s-.57,.26-.57,.57v.79h-.79c-.32,0-.57,.26-.57,.57s.26,.57,.57,.57h0Zm.91,20.47h-.79v-.79c0-.32-.26-.57-.57-.57s-.57,.26-.57,.57v.79h-.79c-.32,0-.57,.26-.57,.57s.26,.57,.57,.57h.79v.79c0,.32,.26,.57,.57,.57s.57-.26,.57-.57v-.79h.79c.32,0,.57-.26,.57-.57,0-.32-.26-.57-.57-.57h0ZM31.08,11.71h.79v.79c0,.32,.26,.57,.57,.57s.57-.26,.57-.57v-.79h.79c.32,0,.57-.26,.57-.57s-.26-.57-.57-.57h-.79v-.79c0-.32-.26-.57-.57-.57s-.57,.26-.57,.57v.79h-.79c-.32,0-.57,.26-.57,.57,0,.32,.26,.57,.57,.57ZM8.38,26.68c0-.39-.32-.71-.71-.71s-.71,.32-.71,.71,.32,.71,.71,.71,.71-.32,.71-.71Zm31.43-8.28c.39,0,.71-.32,.71-.71s-.32-.71-.71-.71-.71,.32-.71,.71c0,.39,.32,.71,.71,.71ZM19.22,10.37c.39,0,.71-.32,.71-.71s-.32-.71-.71-.71-.71,.32-.71,.71,.32,.71,.71,.71Zm19.8,11.37v2.74c0,.36-.2,.69-.52,.85-.32,.16-.71,.13-1-.09l-.6-.45v15.3c0,.53-.43,.95-.95,.95H13.98c-.53,0-.95-.43-.95-.95v-15.3l-.6,.45c-.17,.12-.37,.19-.57,.19-.15,0-.29-.03-.43-.1-.32-.16-.52-.49-.52-.85v-2.74c0-.3,.14-.59,.39-.76l13.1-9.72s0,0,0,0c.34-.25,.79-.25,1.13,0l13.1,9.72c.24,.18,.38,.46,.38,.76h0Zm-3.27,18.17v-15.96s-10.79-8.01-10.79-8.01l-10.79,8.01v15.96h21.57Zm2.12-18.07l-12.91-9.58-12.91,9.58v2.26l12.34-9.16c.17-.13,.37-.19,.57-.19s.4,.06,.57,.19l12.34,9.16v-2.26Zm1.93,15.79c-.39,0-.71,.32-.71,.71s.32,.71,.71,.71,.71-.32,.71-.71-.32-.71-.71-.71Z"/>
  <path class="cls-1" d="M23.87,36.65l1.21-1.21c.17-.17,.44-.16,.6,0,.17,.17,.16,.44,0,.6l-.47,.47c4.16-.11,7.51-3.52,7.51-7.71,0-.23,.2-.43,.43-.43s.43,.2,.43,.43c-.01,4.66-3.73,8.46-8.38,8.58l.48,.48c.17,.17,.16,.44,0,.6s-.44,.16-.6,0l-1.21-1.21c-.17-.17-.16-.44,0-.6h0Zm.44-17.51c-.17,.17-.16,.44,0,.6l.48,.48c-2.22,.06-4.29,.95-5.86,2.52s-2.51,3.76-2.51,6.07c0,.23,.2,.43,.43,.43,.23,0,.43-.2,.43-.43,0-2.08,.8-4.02,2.25-5.47s3.26-2.21,5.24-2.25l-.47,.47c-.17,.17-.16,.44,0,.6s.44,.16,.6,0l1.21-1.21c.17-.17,.16-.44,0-.6l-1.21-1.21c-.16-.16-.44-.16-.6,0h0Zm3.86,5.43l-.14,.37c.33,.24,.61,.53,.86,.86l.36-.16c.23-.09,.47-.1,.68,0,.23,.09,.4,.26,.48,.48l.31,.74c.14,.34,.07,.73-.19,.98-.09,.09-.19,.16-.28,.2l-.37,.14c.06,.4,.04,.81-.01,1.21l.36,.16c.23,.09,.4,.26,.48,.48s.1,.47,0,.68l-.31,.74c-.04,.1-.11,.2-.2,.28-.26,.26-.64,.33-.98,.19l-.37-.14c-.26,.31-.54,.6-.86,.86l.14,.37c.14,.34,.07,.73-.19,.98-.09,.09-.19,.16-.28,.2l-.74,.31c-.46,.2-1-.03-1.18-.5l-.14-.34c-.4,.06-.81,.04-1.21-.01l-.14,.37c-.04,.1-.11,.2-.2,.28-.26,.26-.64,.33-.98,.19l-.74-.31c-.23-.09-.4-.26-.48-.48-.09-.23-.1-.47,0-.68l.14-.34c-.33-.24-.61-.53-.86-.86l-.37,.14c-.23,.09-.47,.1-.68,0-.23-.09-.4-.26-.48-.48l-.31-.74c-.14-.34-.06-.71,.21-.98,.09-.09,.19-.16,.28-.2l.36-.16c-.06-.4-.04-.81,.01-1.21l-.37-.14c-.23-.09-.4-.26-.48-.48-.09-.23-.1-.47,0-.68l.31-.74c.04-.1,.11-.2,.2-.28,.26-.26,.64-.33,.98-.19l.34,.11c.26-.31,.54-.6,.86-.86l-.14-.37c-.14-.34-.07-.73,.19-.98,.09-.09,.19-.16,.28-.2l.74-.31c.23-.09,.47-.1,.68,0,.23,.09,.4,.26,.48,.48l.14,.37c.4-.06,.81-.04,1.21,.01l.19-.36c.04-.1,.11-.2,.2-.28,.26-.26,.64-.33,.98-.19l.74,.31c.23,.09,.4,.26,.48,.48,.1,.19,.1,.44,.01,.67h0Zm-.83-.4l-.74-.31s-.06,0-.06,.03l-.28,.68c-.07,.19-.27,.3-.48,.26-.53-.1-1.05-.11-1.57,0-.2,.03-.4-.06-.48-.26l-.28-.68-.03-.03s-.03,0-.03,0l-.74,.31s-.03,.03-.03,.06l.28,.68c.07,.19,.01,.41-.16,.53-.44,.3-.81,.67-1.11,1.11l-.06,.06c-.11,.11-.3,.16-.47,.1l-.68-.28s-.06,0-.06,.03l-.31,.74s0,.03,0,.03l.03,.03,.68,.28c.19,.07,.3,.27,.26,.48-.1,.53-.11,1.05,0,1.57,.03,.2-.06,.4-.26,.48l-.68,.28s-.03,.03-.03,.06l.31,.74,.03,.03s.03,0,.03,0l.68-.28c.19-.07,.41-.01,.53,.16,.3,.44,.67,.81,1.11,1.11,.17,.11,.24,.33,.16,.53l-.28,.68s0,.03,0,.03l.03,.03,.74,.31s.06,0,.06-.03l.28-.68c.07-.19,.27-.3,.48-.26,.53,.1,1.05,.11,1.57,0,.2-.03,.4,.06,.48,.26l.28,.68s.04,.04,.06,.03l.74-.31s.03-.03,.03-.06l-.28-.68c-.07-.19-.01-.41,.16-.53,.44-.3,.81-.67,1.11-1.11,.11-.17,.33-.24,.53-.16l.68,.28s.06,0,.06-.03l.31-.74s0-.03,0-.03l-.03-.03-.68-.28c-.19-.07-.3-.27-.26-.48,.1-.53,.11-1.05,0-1.57-.03-.2,.06-.4,.26-.48l.68-.28s.03-.03,.03-.06l-.31-.74-.03-.03s-.03,0-.03,0l-.68,.28c-.19,.07-.41,.01-.53-.16-.3-.44-.67-.81-1.11-1.11-.17-.11-.24-.33-.16-.53l.28-.68s0-.03,0-.03l-.03-.03h0Zm-1.37,2.28c.63,.26,1.13,.76,1.38,1.38,.4,.97,.17,2.05-.56,2.78-.24,.24-.51,.43-.84,.56-.63,.26-1.33,.27-1.97,0-.63-.26-1.13-.76-1.38-1.38-.4-.97-.17-2.05,.56-2.78,.24-.24,.51-.43,.84-.56,.64-.27,1.33-.27,1.97,0Zm-.33,.78c-.43-.17-.88-.17-1.31,0-.2,.09-.38,.21-.54,.37-.48,.48-.63,1.23-.37,1.85,.17,.43,.5,.76,.93,.93,.43,.17,.88,.17,1.31,0,.2-.09,.38-.21,.54-.37,.48-.48,.63-1.23,.37-1.85-.17-.43-.5-.76-.93-.93Z"/>
</svg>