<?xml version="1.0" encoding="UTF-8"?>
<svg id="svg10" xmlns="http://www.w3.org/2000/svg" viewBox="0 0 50 50">
  <defs>
    <style>
      .cls-1 {
        stroke-width: 1.82px;
      }

      .cls-1, .cls-2 {
        fill: none;
        stroke: #4e5ef1;
        stroke-linecap: round;
        stroke-linejoin: round;
      }

      .cls-2 {
        stroke-width: 1.73px;
      }
    </style>
  </defs>
  <path class="cls-2" d="M34.79,14.09l.66,1.98c.19,.63,.59,1.17,1.13,1.54l1.67,1.12c.56,.38,.97,.93,1.17,1.58s.17,1.34-.08,1.96l-.66,1.6c-.29,.71-.29,1.5,0,2.21l.66,1.56c.25,.61,.28,1.29,.1,1.93-.18,.64-.58,1.19-1.12,1.58l-1.48,1.06c-.54,.39-.94,.95-1.12,1.59l-.53,1.87c-.19,.66-.59,1.23-1.16,1.62-.56,.39-1.24,.57-1.92,.51l-1.6-.13c-.76-.06-1.51,.17-2.09,.66l-1.54,1.25c-.53,.43-1.18,.66-1.86,.66s-1.34-.23-1.86-.66l-1.32-1.08c-.53-.43-1.19-.66-1.87-.66h-2.31c-.67,0-1.31-.22-1.83-.64-.52-.41-.89-.99-1.03-1.64l-.42-1.79c-.16-.72-.6-1.36-1.21-1.77l-1.42-1.04c-.54-.36-.94-.9-1.14-1.51-.2-.62-.19-1.28,.02-1.89l.66-1.8c.24-.66,.24-1.38,0-2.04l-.59-1.58c-.24-.63-.25-1.32-.04-1.96,.21-.64,.63-1.18,1.2-1.55l1.56-1.01c.6-.39,1.04-.99,1.24-1.68l.46-1.66c.18-.66,.59-1.24,1.16-1.63,.56-.39,1.25-.57,1.93-.51l1.48,.13c.76,.06,1.51-.18,2.1-.66l1.4-1.13c.53-.43,1.19-.67,1.87-.67s1.34,.24,1.87,.67l1.23,1.03c.59,.49,1.35,.72,2.11,.66l1.55-.11c.66-.04,1.32,.14,1.86,.51,.54,.38,.95,.92,1.14,1.56h0Z"/>
  <path class="cls-1" d="M21.48,22.27c1.37,0,2.48-1.11,2.48-2.48s-1.11-2.48-2.48-2.48-2.48,1.11-2.48,2.48,1.11,2.48,2.48,2.48Zm7.58,10.43c1.37,0,2.48-1.11,2.48-2.48s-1.11-2.48-2.48-2.48-2.48,1.11-2.48,2.48,1.11,2.48,2.48,2.48Zm2.48-14.16l-13.08,13.09"/>
</svg>