<?xml version="1.0" encoding="UTF-8"?>
<svg id="svg10" xmlns="http://www.w3.org/2000/svg" viewBox="0 0 50 50">
  <defs>
    <style>
      .cls-1 {
        fill: #4e5ef1;
      }
    </style>
  </defs>
  <path class="cls-1" d="M25,32.69c6.99,0,12.65-5.66,12.65-12.65s-5.66-12.65-12.65-12.65-12.65,5.66-12.65,12.65c0,6.98,5.67,12.64,12.65,12.65Zm0-23.9c6.21,0,11.24,5.03,11.24,11.24s-5.03,11.24-11.24,11.24-11.24-5.03-11.24-11.24h0c0-6.21,5.04-11.24,11.24-11.24Zm2.32,12.16c.75-.65,1.18-1.59,1.18-2.58,0-1.92-1.55-3.47-3.47-3.47s-3.47,1.55-3.47,3.47c0,.99,.43,1.93,1.18,2.58-1.98,.9-3.26,2.87-3.26,5.05,0,.38,.31,.69,.69,.69s.69-.31,.69-.69c0-2.3,1.86-4.16,4.16-4.16s4.16,1.86,4.16,4.16c0,.38,.31,.69,.69,.69s.69-.31,.69-.69c0-2.18-1.28-4.15-3.26-5.05Zm-2.29-.5c-1.15,0-2.08-.93-2.08-2.08s.93-2.08,2.08-2.08,2.08,.93,2.08,2.08-.93,2.08-2.08,2.08Zm5.94-3.26c1.05-1.19,.92-2.97-.24-4.06-.73-.69-2.65-1.05-3.84,.37-.22,.23-.21,.59,.02,.81s.58,.2,.81-.02c1.47-1.42,2.82,.03,2.82,.99,0,.61-.33,1.18-.86,1.49-.17,.1-.28,.28-.29,.48,0,.2,.09,.39,.26,.49l.22,.15,.07,.04c1.41,.67,2.31,2.1,2.3,3.67,0,.32,.26,.57,.57,.57s.57-.26,.57-.57c0-1.79-.91-3.46-2.43-4.41Zm-14.38,4.41c0,.32,.26,.57,.57,.57s.57-.26,.57-.57c-.01-1.57,.88-3,2.3-3.67l.07-.04,.22-.15c.17-.11,.26-.3,.26-.49,0-.2-.11-.38-.29-.48-.53-.31-.86-.87-.86-1.49,0-.95,1.35-2.4,2.82-.99,.23,.22,.58,.24,.81,.02s.24-.58,.02-.81c-1.19-1.41-3.11-1.05-3.84-.37-1.16,1.09-1.29,2.87-.24,4.06-1.52,.95-2.44,2.62-2.43,4.41Z"/>
  <path class="cls-1" d="M39.81,26.76h0m-.34,1.06l.4,1.22c.13,.41,.52,.69,.95,.69h1.28s-1.04,.75-1.04,.75c-.35,.25-.5,.71-.36,1.12l.4,1.22-1.04-.75c-.18-.13-.38-.19-.59-.19s-.41,.06-.59,.19l-1.04,.75,.4-1.22c.13-.41-.01-.86-.36-1.12l-1.04-.75h1.28c.43,0,.82-.28,.95-.69l.4-1.22m0-1.82c-.07,0-.14,.01-.21,.04-.18,.06-.32,.21-.39,.39l-.75,2.31h-2.43c-.35,0-.63,.3-.62,.65,0,.19,.1,.37,.25,.49l1.96,1.43-.75,2.31c-.1,.34,.09,.69,.43,.79,.06,.02,.12,.03,.18,.03,.13,0,.25-.04,.36-.11l1.96-1.43,1.96,1.43c.11,.07,.23,.11,.36,.11,.2,0,.4-.1,.52-.28,.11-.16,.14-.35,.09-.54l-.75-2.31,1.96-1.43c.29-.19,.36-.57,.17-.86-.12-.17-.31-.28-.52-.28,0,0-.02,0-.03,0h-2.43l-.75-2.31c-.09-.26-.34-.42-.6-.42h0Z"/>
  <path class="cls-1" d="M10.88,26.76h0m-.34,1.06l.4,1.22c.13,.41,.52,.69,.95,.69h1.28s-1.04,.75-1.04,.75c-.35,.25-.5,.71-.36,1.12l.4,1.22-1.04-.75c-.18-.13-.38-.19-.59-.19s-.41,.06-.59,.19l-1.04,.75,.4-1.22c.13-.41-.01-.86-.36-1.12l-1.04-.75h1.28c.43,0,.82-.28,.95-.69l.4-1.22m0-1.82c-.07,0-.14,.01-.21,.04-.18,.06-.32,.21-.39,.39l-.75,2.31h-2.43s-.02,0-.03,0c-.33,0-.61,.26-.62,.59,0,.22,.1,.42,.28,.54l1.96,1.43-.75,2.31c-.1,.34,.09,.69,.43,.79,.06,.02,.12,.03,.18,.03,.13,0,.25-.04,.36-.11l1.96-1.43,1.96,1.43c.11,.08,.24,.11,.36,.11,.2,0,.4-.1,.52-.27,.11-.16,.14-.36,.09-.54l-.75-2.31,1.96-1.43c.28-.21,.33-.61,.12-.89-.12-.15-.3-.24-.49-.25h-2.43l-.75-2.31c-.09-.26-.34-.42-.6-.42h0Z"/>
  <path class="cls-1" d="M33.51,33.05h0m-.34,1.06l.4,1.22c.13,.41,.52,.69,.95,.69h1.28s-1.04,.75-1.04,.75c-.35,.25-.5,.71-.36,1.12l.4,1.22-1.04-.75c-.18-.13-.38-.19-.59-.19s-.41,.06-.59,.19l-1.04,.75,.4-1.22c.13-.41-.01-.86-.36-1.12l-1.04-.75h1.28c.43,0,.82-.28,.95-.69l.4-1.22m0-1.82c-.07,0-.14,.01-.21,.04-.18,.06-.32,.21-.39,.39l-.75,2.31h-2.43c-.35,0-.63,.3-.62,.65,0,.19,.1,.37,.25,.49l1.96,1.43-.75,2.31c-.1,.34,.09,.69,.43,.79,.06,.02,.12,.03,.18,.03,.13,0,.25-.04,.36-.11l1.96-1.43,1.96,1.43c.11,.07,.23,.11,.36,.11,.2,0,.4-.1,.52-.28,.11-.16,.14-.35,.09-.54l-.75-2.31,1.96-1.43c.29-.19,.36-.57,.17-.86-.12-.17-.31-.28-.52-.28,0,0-.02,0-.03,0h-2.43l-.75-2.31c-.09-.26-.34-.42-.6-.42h0Z"/>
  <path class="cls-1" d="M25.32,34.95h0m-.34,1.06l.4,1.22c.13,.41,.52,.69,.95,.69h1.28s-1.04,.75-1.04,.75c-.35,.25-.5,.71-.36,1.12l.4,1.22-1.04-.75c-.18-.13-.38-.19-.59-.19s-.41,.06-.59,.19l-1.04,.75,.4-1.22c.13-.41-.01-.86-.36-1.12l-1.04-.75h1.28c.43,0,.82-.28,.95-.69l.4-1.22m0-1.82c-.07,0-.14,.01-.21,.04-.18,.06-.32,.21-.39,.39l-.75,2.31h-2.43c-.35,0-.63,.3-.62,.65,0,.19,.1,.37,.25,.49l1.96,1.43-.75,2.31c-.1,.34,.09,.69,.43,.79,.06,.02,.12,.03,.18,.03,.13,0,.25-.04,.36-.11l1.96-1.43,1.96,1.43c.11,.07,.23,.11,.36,.11,.2,0,.4-.1,.52-.28,.11-.16,.14-.35,.09-.54l-.75-2.31,1.96-1.43c.29-.19,.36-.57,.17-.86-.12-.17-.31-.28-.52-.28,0,0-.02,0-.03,0h0s-2.43,0-2.43,0l-.75-2.31c-.09-.26-.34-.42-.6-.42h0Z"/>
  <path class="cls-1" d="M17.16,33.04h0m-.34,1.06l.4,1.22c.13,.41,.52,.69,.95,.69h1.28s-1.04,.75-1.04,.75c-.35,.25-.5,.71-.36,1.12l.4,1.22-1.04-.75c-.18-.13-.38-.19-.59-.19s-.41,.06-.59,.19l-1.04,.75,.4-1.22c.13-.41-.01-.86-.36-1.12l-1.04-.75h1.28c.43,0,.82-.28,.95-.69l.4-1.22m0-1.82c-.07,0-.14,.01-.21,.04-.18,.06-.32,.21-.39,.39l-.75,2.31h-2.43c-.35,0-.63,.3-.62,.65,0,.19,.1,.37,.25,.49l1.96,1.43-.75,2.31c-.1,.34,.09,.69,.43,.79,.06,.02,.12,.03,.18,.03,.13,0,.25-.04,.36-.11l1.96-1.43,1.96,1.43c.11,.07,.23,.11,.36,.11,.2,0,.4-.1,.52-.28,.11-.16,.14-.35,.09-.54l-.75-2.31,1.96-1.43c.29-.19,.36-.57,.17-.86-.12-.17-.31-.28-.52-.28,0,0-.02,0-.03,0h0s-2.43,0-2.43,0l-.75-2.31c-.09-.26-.34-.42-.6-.42h0Z"/>
</svg>