<?xml version="1.0" encoding="UTF-8"?>
<svg id="svg10" xmlns="http://www.w3.org/2000/svg" viewBox="0 0 50 50">
  <defs>
    <style>
      .cls-1 {
        fill: #4e5ef1;
      }

      .cls-2 {
        fill: none;
        stroke: #4e5ef1;
        stroke-linecap: round;
        stroke-linejoin: round;
        stroke-width: 1.63px;
      }
    </style>
  </defs>
  <path class="cls-1" d="M30.15,34.9c.86-5.52,5.18-5.73,5.15-12.17-.03-5.77-4.89-10.19-10.3-10.22-5.41,.03-10.26,4.45-10.3,10.22-.03,6.44,4.29,6.65,5.15,12.17-.77,.71-.84,1.91-.14,2.7-.31,.35-.49,.81-.49,1.28,0,1.07,.85,1.94,1.92,1.94h.71c.26,1.27,1.25,2.26,2.51,2.51,.21,.04,.43,.06,.64,.06,.21,0,.43-.02,.64-.06,1.27-.26,2.26-1.25,2.51-2.51h.71c1.07,0,1.93-.87,1.92-1.94,0-.47-.18-.93-.49-1.28,.69-.79,.63-1.99-.14-2.7Zm-11.93-6.17c-1.45-1.65-2.25-3.78-2.23-5.99,.02-1.27,.3-2.52,.83-3.67,1.52-3.3,4.77-5.24,8.18-5.26,3.41,.02,6.66,1.96,8.18,5.26,.53,1.15,.81,2.4,.83,3.67,.02,2.2-.78,4.33-2.23,5.99-.63,.72-1.17,1.5-1.63,2.34l-1.29,3.31h-7.72l-1.29-3.31c-.45-.84-1-1.62-1.63-2.34Zm6.78,13.37c-.8,0-1.54-.49-1.82-1.28h3.64c-.28,.79-1.03,1.28-1.82,1.28Zm3.86-2.57h-7.72c-.36,0-.64-.29-.64-.64s.29-.64,.64-.64h7.72c.36,0,.64,.29,.64,.64s-.29,.64-.64,.64Zm0-2.57h-7.72c-.36,0-.64-.29-.64-.64s.29-.64,.64-.64h7.72c.36,0,.64,.29,.64,.64s-.29,.64-.64,.64Z"/>
  <path class="cls-1" d="M29.96,21.51c-.08-.18-.25-.3-.45-.31h-2.35l.65-2.43c.04-.15,0-.32-.09-.45-.1-.13-.25-.2-.41-.2h-3.59c-.24,0-.45,.15-.51,.38l-1.38,5.13c-.04,.15,0,.32,.09,.45,.1,.13,.25,.2,.41,.2h1.99l-1.7,5.53c-.07,.27,.09,.56,.36,.63,.19,.05,.39,0,.52-.15l6.37-8.23c.14-.15,.17-.36,.09-.55Zm-5.8,6.53l1.32-4.12c.04-.15,0-.32-.09-.45-.1-.13-.25-.2-.41-.2h-1.97l1.1-4.12h2.53l-.65,2.43c-.07,.27,.09,.56,.36,.63,.05,.01,.1,.02,.15,.02h1.83l-4.18,5.81Z"/>
  <line class="cls-2" x1="25" y1="6.61" x2="25" y2="10.12"/>
  <line class="cls-2" x1="31.18" y1="8.78" x2="30.39" y2="11.02"/>
  <line class="cls-2" x1="35.9" y1="12.81" x2="34.69" y2="13.79"/>
  <line class="cls-2" x1="38.21" y1="18.08" x2="37.47" y2="18.16"/>
  <g>
    <line class="cls-2" x1="18.82" y1="8.78" x2="19.61" y2="11.02"/>
    <line class="cls-2" x1="14.1" y1="12.81" x2="15.31" y2="13.79"/>
    <line class="cls-2" x1="11.79" y1="18.08" x2="12.53" y2="18.16"/>
  </g>
</svg>