<?xml version="1.0" encoding="UTF-8"?>
<svg id="svg10" xmlns="http://www.w3.org/2000/svg" viewBox="0 0 50 50">
  <defs>
    <style>
      .cls-1 {
        fill: #4e5ef1;
        stroke: #4e5ef1;
        stroke-miterlimit: 10;
        stroke-width: .15px;
      }
    </style>
  </defs>
  <path class="cls-1" d="M24.89,41.33h-3.95s-.04,0-.07,0c-.07-.01-.68-.1-1-.74-.29-.59-.08-1.52-.04-1.7,0-.03,.2-1.03-.53-1.4-.32-.16-.69-.17-1.01-.03s-.73,.44-.52,1.46c.05,.19,.33,1.35-.18,1.99-.2,.27-.52,.42-.89,.42h-4.21c-.49,0-.89-.4-.89-.89v-12.5c0-.49,.4-.89,.89-.89h4.21s.04,0,.07,0c.07,.01,.68,.1,1,.74,.29,.59,.09,1.52,.04,1.7,0,.03-.2,1.03,.53,1.4,.32,.16,.69,.17,1.01,.03,.32-.14,.73-.44,.52-1.46-.05-.19-.33-1.35,.17-1.99,.21-.27,.53-.42,.89-.42h3.95c.49,0,.89,.4,.89,.89v4.43s.01,.06,.01,.06c.07,.11,.66,.13,1.17,0,1.88-.38,2.57,.7,2.77,1.18,.28,.65,.24,1.42-.1,2.05-.8,1.46-2.59,1.08-2.66,1.06-.36-.09-.86-.13-1.04-.04-.01,.01-.07,.11-.12,.32-.03,.13-.04,.26-.04,.42v3.04c0,.48-.39,.87-.88,.87Zm-3.9-1.07h3.71v-2.85c0-.24,.02-.46,.07-.66,.12-.51,.35-.87,.69-1.04,.61-.3,1.57-.09,1.76-.04,.03,0,1.06,.22,1.47-.53,.18-.34,.2-.75,.06-1.11-.08-.2-.35-.8-1.55-.56-.2,.06-1.4,.32-2.06-.2-.28-.22-.43-.54-.43-.91v-4.23h-3.76c-.13,.1-.14,.63-.02,1.1,.37,1.83-.68,2.49-1.14,2.68-.6,.26-1.32,.24-1.92-.06-1.19-.6-1.23-1.97-1.09-2.61,.08-.34,.12-.82,.04-.97-.05-.09-.12-.13-.16-.15h-3.96v12.13h4.02c.14-.1,.14-.63,.02-1.1-.37-1.82,.68-2.49,1.14-2.68,.61-.26,1.33-.24,1.92,.06,1.18,.6,1.23,1.97,1.09,2.61-.08,.34-.12,.82-.04,.97,.05,.09,.13,.13,.16,.14Z"/>
  <path class="cls-1" d="M37.5,41.33h-12.3c-.3,0-.54-.24-.54-.54s.24-.54,.54-.54h12.11v-4.18c-.11-.14-.67-.14-1.1-.02-1.83,.37-2.49-.68-2.69-1.14-.26-.61-.24-1.33,.06-1.92,.6-1.18,1.97-1.23,2.6-1.09,.34,.08,.82,.12,.97,.04,.09-.05,.13-.12,.15-.16v-3.7h-2.85c-.24,0-.46-.02-.66-.07-.51-.12-.87-.35-1.04-.69-.3-.61-.09-1.57-.04-1.76,0-.03,.22-1.06-.53-1.47-.34-.18-.75-.2-1.11-.06-.2,.08-.8,.34-.56,1.55,.06,.2,.32,1.4-.2,2.06-.22,.28-.54,.43-.91,.43h-3.68v3.23c0,.3-.24,.54-.54,.54s-.54-.24-.54-.54v-3.43c0-.49,.4-.88,.88-.88h3.87s.06,0,.06-.01c.1-.07,.14-.62,0-1.17-.38-1.88,.7-2.57,1.18-2.77,.65-.28,1.42-.24,2.05,.1,1.46,.8,1.08,2.59,1.06,2.66-.09,.36-.13,.86-.04,1.04,.01,.01,.1,.07,.32,.12,.13,.03,.26,.04,.42,.04h3.04c.49,0,.89,.4,.89,.88v3.95s0,.04,0,.07c-.01,.07-.1,.68-.74,1-.59,.29-1.52,.08-1.7,.04-.03,0-1.03-.2-1.4,.53-.16,.32-.17,.69-.03,1.01,.14,.32,.44,.73,1.46,.52,.19-.05,1.35-.32,1.99,.18,.27,.21,.42,.53,.42,.89v4.36c0,.49-.39,.89-.88,.89Zm-.17-20.7l-4.03,1.22s-.04,.01-.07,.01c-.07,0-.68,.1-1.17-.42-.45-.48-.52-1.43-.53-1.62,0-.03-.1-1.04-.91-1.19-.35-.06-.71,.04-.97,.26-.27,.23-.57,.63-.07,1.55,.1,.17,.7,1.19,.41,1.96-.12,.32-.38,.56-.73,.66l-3.78,1.15c-.47,.14-.96-.12-1.1-.59l-1.12-3.7s-.02-.06-.03-.06c-.09-.08-.64,.04-1.12,.33-1.69,.91-2.66,.08-3-.32-.46-.54-.64-1.29-.5-1.99,.34-1.62,2.16-1.78,2.24-1.79,.37-.02,.87-.13,1-.26,0-.01,.04-.12,.02-.34,0-.13-.03-.26-.08-.41l-.88-2.9c-.14-.47,.12-.96,.59-1.1l3.78-1.15s.04-.01,.07-.01c.07,0,.68-.1,1.17,.42,.45,.48,.52,1.43,.53,1.62,0,.03,.1,1.04,.91,1.19,.35,.06,.71-.04,.98-.26s.57-.63,.07-1.55c-.1-.17-.7-1.19-.41-1.96,.11-.32,.37-.55,.72-.66l4.03-1.22c.47-.14,.96,.12,1.1,.59l3.46,11.44c.14,.46-.12,.96-.59,1.1Zm-4.29,.18l3.79-1.15-3.35-11.07-3.85,1.17c-.11,.14,.06,.68,.3,1.06,.88,1.64,.07,2.57-.31,2.91-.51,.43-1.2,.61-1.86,.5-1.31-.23-1.75-1.52-1.79-2.18-.02-.35-.12-.82-.24-.95-.08-.08-.16-.1-.19-.1l-3.55,1.07,.82,2.72c.07,.23,.11,.45,.12,.65,.04,.52-.09,.93-.36,1.19-.49,.47-1.48,.54-1.67,.55-.03,0-1.08,.1-1.26,.94-.08,.38,.02,.78,.27,1.08,.14,.17,.56,.66,1.65,.09,.18-.11,1.25-.71,2.03-.41,.33,.12,.57,.39,.68,.75l1.07,3.52,3.6-1.09c.1-.13-.04-.64-.3-1.06-.88-1.64-.07-2.57,.31-2.9,.5-.42,1.2-.61,1.85-.5,1.31,.23,1.75,1.52,1.8,2.18,.02,.35,.12,.82,.24,.95,.07,.08,.15,.09,.2,.09Z"/>
  <path class="cls-1" d="M18.85,32.27c-.39,0-.78-.09-1.12-.29-1.46-.8-1.08-2.59-1.06-2.66,.09-.36,.13-.86,.04-1.04-.01,0-.11-.07-.32-.12-.13-.03-.26-.04-.42-.04h-3.47c-.49,0-.88-.4-.88-.88v-3.75s0-.04,0-.07c.01-.07,.1-.68,.74-1,.59-.29,1.96-.08,2.13-.04,.03,0,1.03,.2,1.4-.53,.16-.32,.17-.69,.03-1.01s-.44-.73-1.46-.52c-.19,.05-1.78,.33-2.43-.17-.27-.21-.42-.53-.42-.89v-4.22c0-.49,.4-.88,.88-.88h9.5c.3,0,.54,.24,.54,.54s-.24,.54-.54,.54H12.69v4.02c.11,.14,1.11,.13,1.54,.02,1.82-.37,2.49,.68,2.69,1.14,.26,.61,.24,1.33-.06,1.92-.6,1.18-1.97,1.23-2.6,1.09-.34-.08-1.25-.12-1.41-.04-.09,.05-.13,.12-.15,.16v3.5h3.28c.24,0,.45,.02,.66,.07,.51,.12,.87,.35,1.04,.69,.3,.61,.09,1.57,.04,1.76,0,.03-.22,1.06,.53,1.47,.34,.19,.75,.2,1.11,.06,.2-.08,.8-.34,.56-1.55-.06-.2-.32-1.4,.2-2.06,.22-.28,.54-.43,.91-.43h3.68v-3.03c0-.3,.24-.54,.54-.54s.54,.24,.54,.54v3.22c0,.49-.39,.88-.88,.88h-3.87s-.06,0-.06,.01c-.1,.07-.14,.62,0,1.17,.38,1.88-.7,2.57-1.18,2.77-.29,.12-.61,.19-.92,.19Z"/>
</svg>