<?xml version="1.0" encoding="UTF-8"?>
<svg id="svg10" xmlns="http://www.w3.org/2000/svg" viewBox="0 0 50 50">
  <defs>
    <style>
      .cls-1 {
        fill: #4e5ef1;
        stroke: #4e5ef1;
        stroke-miterlimit: 10;
        stroke-width: .15px;
      }
    </style>
  </defs>
  <path class="cls-1" d="M13.69,10.12h-1.79c-1.64,0-2.98,1.33-2.98,2.98v19.04c0,1.64,1.33,2.98,2.98,2.98h8.93v3.57h-1.79v1.19h11.9v-1.19h-1.79v-3.57h8.93c1.64,0,2.98-1.33,2.98-2.98V13.1c0-1.64-1.33-2.98-2.98-2.98H13.69Zm0,2.38h-1.79c-.33,0-.6,.27-.6,.6V29.17h-1.19V13.1c0-.99,.8-1.79,1.79-1.79h26.19c.99,0,1.79,.8,1.79,1.79V29.17h-1.19V13.1c0-.33-.27-.6-.6-.6H13.69Zm1.79,10.97h4.17c.22,0,.43-.13,.53-.33l1.07-2.13,1.37,5.58c.07,.27,.32,.46,.6,.45,.27,.01,.51-.15,.6-.4l1.02-3.17h1.95c.22,0,.43-.13,.53-.33l1.07-2.13,1.37,5.58c.07,.27,.32,.46,.6,.45h0c.27,.01,.51-.15,.6-.4l1.02-3.17h2.55v-1.19h-2.98c-.27-.01-.51,.15-.6,.4l-.54,1.64-1.24-5.16c-.08-.32-.4-.51-.72-.43-.17,.04-.31,.15-.38,.31l-1.64,3.24h-2.01c-.26,0-.48,.16-.57,.4l-.54,1.64-1.27-5.16c-.08-.32-.4-.51-.72-.43-.17,.04-.31,.15-.38,.31l-1.64,3.24h-3.8v1.19Zm-1.19,5.69h-1.79V13.69h25v15.47H14.29Zm13.69,9.52h-5.95v-3.57h5.95v3.57Zm10.12-4.76H11.91c-.99,0-1.79-.8-1.79-1.79v-1.79h29.76v1.79c0,.99-.8,1.79-1.79,1.79Zm-15.47-2.38h5.36v1.19h-5.36v-1.19Zm-7.44-15.84h-1.79v-1.19h1.79v1.19Zm2.98,0h-1.79v-1.19h1.79v1.19Z"/>
</svg>