<?xml version="1.0" encoding="UTF-8"?>
<svg id="svg10" xmlns="http://www.w3.org/2000/svg" viewBox="0 0 50 50">
  <defs>
    <style>
      .cls-1 {
        fill: #4e5ef1;
      }

      .cls-2 {
        fill: none;
        stroke: #4e5ef1;
        stroke-miterlimit: 10;
        stroke-width: .5px;
      }
    </style>
  </defs>
  <g>
    <path class="cls-1" d="M14.56,8.98h0m-.42,1.3l.22,.69c.13,.41,.52,.69,.95,.69h.72s-.59,.43-.59,.43c-.35,.25-.5,.71-.36,1.12l.22,.69-.59-.43c-.18-.13-.38-.19-.59-.19s-.41,.06-.59,.19l-.59,.43,.22-.69c.13-.41-.01-.86-.36-1.12l-.59-.43h.72c.43,0,.82-.28,.95-.69l.22-.69m0-2c-.06,0-.12,.01-.18,.03-.16,.06-.28,.18-.34,.34l-.65,2.01h-2.11c-.31,0-.55,.26-.54,.57,0,.17,.08,.32,.22,.42l1.71,1.24-.65,2.01c-.09,.29,.08,.6,.37,.69,.05,.02,.1,.02,.16,.02,.11,0,.22-.03,.31-.1l1.71-1.24,1.71,1.24c.1,.07,.2,.1,.31,.1,.18,0,.35-.08,.46-.24,.09-.14,.12-.31,.07-.47l-.65-2.01,1.71-1.24c.25-.17,.32-.5,.15-.75-.1-.15-.27-.24-.45-.24,0,0-.02,0-.02,0h-2.11l-.65-2.01c-.08-.23-.29-.37-.52-.37h0Z"/>
    <path class="cls-1" d="M25.41,8.98h0m-.42,1.3l.22,.69c.13,.41,.52,.69,.95,.69h.72s-.59,.43-.59,.43c-.35,.25-.5,.71-.36,1.12l.22,.69-.59-.43c-.18-.13-.38-.19-.59-.19s-.41,.06-.59,.19l-.59,.43,.22-.69c.13-.41-.01-.86-.36-1.12l-.59-.43h.72c.43,0,.82-.28,.95-.69l.22-.69m0-2c-.06,0-.12,.01-.18,.03-.16,.06-.28,.18-.34,.34l-.65,2.01h-2.11c-.31,0-.55,.26-.54,.57,0,.17,.08,.32,.22,.42l1.71,1.24-.65,2.01c-.09,.29,.08,.6,.37,.69,.05,.02,.1,.02,.16,.02,.11,0,.22-.03,.31-.1l1.71-1.24,1.71,1.24c.1,.07,.2,.1,.31,.1,.18,0,.35-.08,.46-.24,.09-.14,.12-.31,.07-.47l-.65-2.01,1.71-1.24c.25-.17,.32-.5,.15-.75-.1-.15-.27-.24-.45-.24,0,0-.02,0-.02,0h-2.11l-.65-2.01c-.08-.23-.29-.37-.52-.37h0Z"/>
    <path class="cls-1" d="M36.26,8.98h0m-.42,1.3l.22,.69c.13,.41,.52,.69,.95,.69h.72s-.59,.43-.59,.43c-.35,.25-.5,.71-.36,1.12l.22,.69-.59-.43c-.18-.13-.38-.19-.59-.19s-.41,.06-.59,.19l-.59,.43,.22-.69c.13-.41-.01-.86-.36-1.12l-.59-.43h.72c.43,0,.82-.28,.95-.69l.22-.69m0-2c-.06,0-.12,.01-.18,.03-.16,.06-.28,.18-.34,.34l-.65,2.01h-2.11c-.31,0-.55,.26-.54,.57,0,.17,.08,.32,.22,.42l1.71,1.24-.65,2.01c-.09,.29,.08,.6,.37,.69,.05,.02,.1,.02,.16,.02,.11,0,.22-.03,.31-.1l1.71-1.24,1.71,1.24c.1,.07,.2,.1,.31,.1,.18,0,.35-.08,.46-.24,.09-.14,.12-.31,.07-.47l-.65-2.01,1.71-1.24c.25-.17,.32-.5,.15-.75-.1-.15-.27-.24-.45-.24,0,0-.02,0-.02,0h-2.11l-.65-2.01c-.08-.23-.29-.37-.52-.37h0Z"/>
  </g>
  <g>
    <path class="cls-1" d="M25.04,41.53c-.18,0-.34-.08-.45-.23L12.48,25.24c-.16-.16-.15-.41-.06-.54l3.8-6.05c.06-.16,.26-.26,.39-.26h16.79c.14,0,.29,.1,.4,.26l3.79,6.04c.1,.15,.1,.34,0,.49l-12.09,16.12c-.11,.14-.27,.23-.45,.23h0Zm-.08-2.33l3.7-13.76h-7.41l3.7,13.76Zm1.42-1.52l.35,.17,9.38-12.4h-6.39l-3.34,12.23Zm-3.2,.17l.35-.17-3.34-12.23h-6.38l9.38,12.4Zm7.1-13.41h5.93l-2.88-4.65-3.04,4.65Zm-8.74,0h6.83l-3.42-4.68-3.41,4.68Zm-7.83,0h5.93l-3.04-4.65-2.88,4.65Zm6.89-.41l3.34-4.7h-6.45l3.11,4.7Zm8.72,0l3.11-4.62h-6.46l3.35,4.62Z"/>
    <path class="cls-2" d="M25.04,41.53c-.18,0-.34-.08-.45-.23L12.48,25.24c-.16-.16-.15-.41-.06-.54l3.8-6.05c.06-.16,.26-.26,.39-.26h16.79c.14,0,.29,.1,.4,.26l3.79,6.04c.1,.15,.1,.34,0,.49l-12.09,16.12c-.11,.14-.27,.23-.45,.23h0Zm-.08-2.33l3.7-13.76h-7.41l3.7,13.76Zm1.42-1.52l.35,.17,9.38-12.4h-6.39l-3.34,12.23Zm-3.2,.17l.35-.17-3.34-12.23h-6.38l9.38,12.4Zm7.1-13.41h5.93l-2.88-4.65-3.04,4.65Zm-8.74,0h6.83l-3.42-4.68-3.41,4.68Zm-7.83,0h5.93l-3.04-4.65-2.88,4.65Zm6.89-.41l3.34-4.7h-6.45l3.11,4.7Zm8.72,0l3.11-4.62h-6.46l3.35,4.62Z"/>
  </g>
</svg>